<svg xmlns="http://www.w3.org/2000/svg" width="512" height="512" viewBox="0 0 512 512"><defs><linearGradient id="bg" x1="0" y1="0" x2="1" y2="1"><stop offset="0%" stop-color="#0A1426"/><stop offset="100%" stop-color="#02060F"/></linearGradient><radialGradient id="reelGold" cx="34%" cy="26%" r="78%">
      <stop offset="0%" stop-color="#FFE1A7"/>
      <stop offset="46%" stop-color="#E6C385"/>
      <stop offset="100%" stop-color="#8F693B"/>
    </radialGradient>
    <filter id="reelShadow" x="-30%" y="-30%" width="160%" height="160%">
      <feDropShadow dx="0" dy="4" stdDeviation="4" flood-color="#000000" flood-opacity="0.18"/>
    </filter></defs><rect x="0" y="0" width="512" height="512" rx="102.40" fill="url(#bg)" stroke="#41506A" stroke-width="3.07"/><g transform="translate(133.000 420.875) scale(2.0500 -2.0500)"><path d="M56.547,-3.747 Q42.453,-3.747 31.556,0.000 Q20.694,3.747 10.794,10.106 L8.353,45.753 L18.253,45.753 L27.500,22.894 Q33.206,16.053 41.559,11.206 Q49.947,6.394 60.053,6.394 Q73.047,6.394 80.609,13.544 Q88.206,20.694 88.206,32.553 Q88.206,42.453 82.706,49.363 Q77.206,56.306 66.000,62.253 L38.706,77.206 Q32.794,80.300 27.706,83.806 Q22.653,87.347 19.009,91.609 Q15.400,95.906 13.406,101.303 Q11.447,106.700 11.447,113.747 Q11.447,130.247 24.509,141.453 Q37.606,152.694 64.247,157.747 Q87.106,157.747 106.700,147.194 L106.700,112.406 L98.794,112.406 L89.100,137.500 Q84.047,142.553 77.859,145.613 Q71.706,148.706 62.700,148.706 Q50.153,148.706 43.003,142.553 Q35.853,136.400 35.853,125.847 Q35.853,116.806 41.353,110.963 Q46.853,105.153 56.100,100.100 L83.153,85.594 Q97.694,77.653 105.256,68.509 Q112.853,59.400 112.853,45.306 Q112.853,37.194 109.759,29.803 Q106.700,22.447 99.997,16.156 Q93.294,9.900 82.603,4.847 Q71.947,-0.206 56.547,-3.747 Z" fill="#F3F0E9"/></g></svg>